<?xml version="1.0" encoding="utf-8"?>
<!-- Generator: Adobe Illustrator 18.1.1, SVG Export Plug-In . SVG Version: 6.00 Build 0)  -->
<svg version="1.1" id="Layer_1" xmlns="http://www.w3.org/2000/svg" xmlns:xlink="http://www.w3.org/1999/xlink" x="0px" y="0px"
	 viewBox="0 0 792 612" enable-background="new 0 0 792 612" xml:space="preserve">
<g>
	<path d="M327,299.7v-2.5h3.1v2.5H327z M330,301.4v11.1H327v-11.1H330z"/>
	<path d="M334.4,301.4v1.5h0.1c0.4-0.6,0.9-1.1,1.5-1.4c0.6-0.3,1.2-0.4,1.9-0.4c0.8,0,1.5,0.1,2,0.3c0.5,0.2,0.9,0.5,1.2,0.9
		c0.3,0.4,0.5,0.9,0.6,1.4c0.1,0.6,0.2,1.2,0.2,1.9v6.8h-3.1v-6.3c0-0.9-0.1-1.6-0.4-2.1c-0.3-0.5-0.8-0.7-1.5-0.7
		c-0.8,0-1.4,0.2-1.8,0.7c-0.4,0.5-0.6,1.3-0.6,2.4v5.8h-3.1v-11.1H334.4z"/>
	<path d="M349.6,301.4v2h-2.2v5.5c0,0.5,0.1,0.9,0.3,1c0.2,0.2,0.5,0.3,1,0.3c0.2,0,0.3,0,0.5,0c0.2,0,0.3,0,0.5-0.1v2.4
		c-0.3,0-0.5,0.1-0.9,0.1c-0.3,0-0.6,0-0.9,0c-0.5,0-0.9,0-1.3-0.1c-0.4-0.1-0.8-0.2-1.1-0.4c-0.3-0.2-0.6-0.5-0.8-0.8
		c-0.2-0.3-0.3-0.8-0.3-1.4v-6.6h-1.9v-2h1.9v-3.3h3.1v3.3H349.6z"/>
	<path d="M353.8,309.9c0.5,0.4,1.1,0.7,2,0.7c0.6,0,1.1-0.2,1.6-0.5c0.4-0.3,0.7-0.6,0.8-1h2.7c-0.4,1.3-1.1,2.3-2,2.9
		c-0.9,0.6-2,0.9-3.2,0.9c-0.9,0-1.7-0.1-2.4-0.4c-0.7-0.3-1.3-0.7-1.8-1.2c-0.5-0.5-0.9-1.1-1.1-1.8c-0.3-0.7-0.4-1.5-0.4-2.4
		c0-0.8,0.1-1.6,0.4-2.3c0.3-0.7,0.7-1.3,1.2-1.9c0.5-0.5,1.1-0.9,1.8-1.2c0.7-0.3,1.5-0.5,2.3-0.5c0.9,0,1.8,0.2,2.5,0.5
		c0.7,0.4,1.3,0.9,1.7,1.5c0.5,0.6,0.8,1.3,1,2.1c0.2,0.8,0.3,1.6,0.2,2.5h-8C353.1,308.7,353.3,309.4,353.8,309.9z M357.2,304
		c-0.4-0.4-0.9-0.6-1.7-0.6c-0.5,0-0.9,0.1-1.2,0.2c-0.3,0.2-0.6,0.4-0.8,0.6c-0.2,0.2-0.3,0.5-0.4,0.8c-0.1,0.3-0.1,0.5-0.1,0.7h5
		C357.8,305,357.6,304.4,357.2,304z"/>
	<path d="M364.8,301.4v1.5h0.1c0.4-0.6,0.9-1.1,1.5-1.4c0.6-0.3,1.2-0.4,1.9-0.4c0.8,0,1.5,0.1,2,0.3c0.5,0.2,0.9,0.5,1.2,0.9
		c0.3,0.4,0.5,0.9,0.6,1.4c0.1,0.6,0.2,1.2,0.2,1.9v6.8h-3.1v-6.3c0-0.9-0.1-1.6-0.4-2.1c-0.3-0.5-0.8-0.7-1.5-0.7
		c-0.8,0-1.4,0.2-1.8,0.7c-0.4,0.5-0.6,1.3-0.6,2.4v5.8h-3.1v-11.1H364.8z"/>
	<path d="M380,301.4v2h-2.2v5.5c0,0.5,0.1,0.9,0.3,1c0.2,0.2,0.5,0.3,1,0.3c0.2,0,0.3,0,0.5,0c0.2,0,0.3,0,0.5-0.1v2.4
		c-0.3,0-0.5,0.1-0.9,0.1c-0.3,0-0.6,0-0.9,0c-0.5,0-0.9,0-1.3-0.1c-0.4-0.1-0.8-0.2-1.1-0.4c-0.3-0.2-0.6-0.5-0.8-0.8
		c-0.2-0.3-0.3-0.8-0.3-1.4v-6.6h-1.9v-2h1.9v-3.3h3.1v3.3H380z"/>
	<path d="M381.4,299.7v-2.5h3.1v2.5H381.4z M384.5,301.4v11.1h-3.1v-11.1H384.5z"/>
	<path d="M386,304.5c0.3-0.7,0.7-1.3,1.2-1.8c0.5-0.5,1.1-0.9,1.8-1.2c0.7-0.3,1.5-0.4,2.4-0.4c0.9,0,1.7,0.1,2.4,0.4
		c0.7,0.3,1.3,0.7,1.8,1.2c0.5,0.5,0.9,1.1,1.2,1.8c0.3,0.7,0.4,1.5,0.4,2.4c0,0.9-0.1,1.7-0.4,2.4c-0.3,0.7-0.7,1.3-1.2,1.8
		c-0.5,0.5-1.1,0.9-1.8,1.2c-0.7,0.3-1.5,0.4-2.4,0.4c-0.9,0-1.7-0.1-2.4-0.4c-0.7-0.3-1.3-0.7-1.8-1.2c-0.5-0.5-0.9-1.1-1.2-1.8
		c-0.3-0.7-0.4-1.5-0.4-2.4C385.6,306.1,385.7,305.3,386,304.5z M388.8,308.3c0.1,0.4,0.2,0.8,0.4,1.1c0.2,0.3,0.5,0.6,0.8,0.8
		c0.3,0.2,0.8,0.3,1.3,0.3c0.5,0,1-0.1,1.3-0.3c0.3-0.2,0.6-0.5,0.8-0.8c0.2-0.3,0.4-0.7,0.4-1.1c0.1-0.4,0.1-0.9,0.1-1.3
		c0-0.4,0-0.9-0.1-1.3c-0.1-0.4-0.2-0.8-0.4-1.1c-0.2-0.3-0.5-0.6-0.8-0.8c-0.4-0.2-0.8-0.3-1.3-0.3c-0.5,0-0.9,0.1-1.3,0.3
		c-0.3,0.2-0.6,0.5-0.8,0.8c-0.2,0.3-0.4,0.7-0.4,1.1c-0.1,0.4-0.1,0.9-0.1,1.3C388.7,307.4,388.7,307.8,388.8,308.3z"/>
	<path d="M401,301.4v1.5h0.1c0.4-0.6,0.9-1.1,1.5-1.4c0.6-0.3,1.2-0.4,1.9-0.4c0.8,0,1.5,0.1,2,0.3c0.5,0.2,0.9,0.5,1.2,0.9
		c0.3,0.4,0.5,0.9,0.6,1.4c0.1,0.6,0.2,1.2,0.2,1.9v6.8h-3.1v-6.3c0-0.9-0.1-1.6-0.4-2.1c-0.3-0.5-0.8-0.7-1.5-0.7
		c-0.8,0-1.4,0.2-1.8,0.7c-0.4,0.5-0.6,1.3-0.6,2.4v5.8h-3.1v-11.1H401z"/>
	<path d="M410.3,303c0.3-0.5,0.7-0.9,1.2-1.1c0.5-0.3,1-0.5,1.6-0.6c0.6-0.1,1.2-0.2,1.8-0.2c0.6,0,1.1,0,1.7,0.1
		c0.6,0.1,1.1,0.2,1.6,0.5c0.5,0.2,0.9,0.5,1.2,1c0.3,0.4,0.5,1,0.5,1.6v5.8c0,0.5,0,1,0.1,1.4c0.1,0.5,0.2,0.8,0.3,1h-3.1
		c-0.1-0.2-0.1-0.3-0.1-0.5c0-0.2-0.1-0.4-0.1-0.5c-0.5,0.5-1.1,0.9-1.7,1.1c-0.7,0.2-1.3,0.3-2,0.3c-0.5,0-1-0.1-1.5-0.2
		c-0.5-0.1-0.9-0.3-1.2-0.6c-0.3-0.3-0.6-0.6-0.8-1c-0.2-0.4-0.3-0.9-0.3-1.5c0-0.6,0.1-1.2,0.3-1.6c0.2-0.4,0.5-0.7,0.9-1
		c0.4-0.2,0.8-0.4,1.2-0.5c0.5-0.1,0.9-0.2,1.4-0.3c0.5-0.1,0.9-0.1,1.4-0.2c0.4,0,0.8-0.1,1.2-0.2c0.3-0.1,0.6-0.2,0.8-0.4
		c0.2-0.2,0.3-0.4,0.3-0.7c0-0.3-0.1-0.6-0.2-0.8c-0.1-0.2-0.2-0.3-0.4-0.5c-0.2-0.1-0.4-0.2-0.6-0.2c-0.2,0-0.5-0.1-0.8-0.1
		c-0.6,0-1.1,0.1-1.4,0.4c-0.3,0.3-0.5,0.7-0.6,1.3h-3.1C409.8,304.1,410,303.5,410.3,303z M416.4,307.3c-0.2,0.1-0.4,0.1-0.6,0.2
		c-0.2,0-0.5,0.1-0.7,0.1c-0.2,0-0.5,0.1-0.7,0.1c-0.2,0-0.5,0.1-0.7,0.2c-0.2,0.1-0.4,0.2-0.6,0.3c-0.2,0.1-0.3,0.3-0.4,0.5
		c-0.1,0.2-0.2,0.4-0.2,0.7c0,0.3,0,0.5,0.2,0.7c0.1,0.2,0.2,0.3,0.4,0.4c0.2,0.1,0.4,0.2,0.6,0.2c0.2,0,0.5,0.1,0.7,0.1
		c0.6,0,1.1-0.1,1.4-0.3c0.3-0.2,0.6-0.4,0.7-0.7c0.2-0.3,0.3-0.6,0.3-0.8c0-0.3,0.1-0.5,0.1-0.7v-1.1
		C416.7,307.2,416.6,307.3,416.4,307.3z"/>
	<path d="M424.5,297.2v15.4h-3.1v-15.4H424.5z"/>
	<path d="M430.7,303.4v-2h1.8v-0.9c0-1,0.3-1.8,0.9-2.4c0.6-0.6,1.6-0.9,2.8-0.9c0.3,0,0.5,0,0.8,0c0.3,0,0.5,0,0.8,0.1v2.3
		c-0.4,0-0.7-0.1-1.1-0.1c-0.4,0-0.7,0.1-0.9,0.3c-0.2,0.2-0.3,0.5-0.3,1v0.7h2.1v2h-2.1v9.1h-3.1v-9.1H430.7z"/>
	<path d="M446.5,312.5V311h-0.1c-0.4,0.6-0.9,1.1-1.5,1.4c-0.6,0.3-1.2,0.4-1.9,0.4c-0.8,0-1.5-0.1-2-0.3c-0.5-0.2-0.9-0.5-1.2-0.9
		c-0.3-0.4-0.5-0.9-0.6-1.4c-0.1-0.6-0.2-1.2-0.2-1.9v-6.8h3.1v6.3c0,0.9,0.1,1.6,0.4,2.1c0.3,0.5,0.8,0.7,1.5,0.7
		c0.8,0,1.4-0.2,1.8-0.7c0.4-0.5,0.6-1.3,0.6-2.4v-5.8h3.1v11.1H446.5z"/>
	<path d="M457.7,301.4v2h-2.2v5.5c0,0.5,0.1,0.9,0.3,1c0.2,0.2,0.5,0.3,1,0.3c0.2,0,0.3,0,0.5,0c0.2,0,0.3,0,0.5-0.1v2.4
		c-0.3,0-0.5,0.1-0.9,0.1c-0.3,0-0.6,0-0.9,0c-0.5,0-0.9,0-1.3-0.1c-0.4-0.1-0.8-0.2-1.1-0.4c-0.3-0.2-0.6-0.5-0.8-0.8
		c-0.2-0.3-0.3-0.8-0.3-1.4v-6.6h-1.8v-2h1.8v-3.3h3.1v3.3H457.7z"/>
	<path d="M466.6,312.5V311h-0.1c-0.4,0.6-0.9,1.1-1.5,1.4c-0.6,0.3-1.2,0.4-1.9,0.4c-0.8,0-1.5-0.1-2-0.3c-0.5-0.2-0.9-0.5-1.2-0.9
		c-0.3-0.4-0.5-0.9-0.6-1.4c-0.1-0.6-0.2-1.2-0.2-1.9v-6.8h3.1v6.3c0,0.9,0.1,1.6,0.4,2.1c0.3,0.5,0.8,0.7,1.5,0.7
		c0.8,0,1.4-0.2,1.8-0.7c0.4-0.5,0.6-1.3,0.6-2.4v-5.8h3.1v11.1H466.6z"/>
	<path d="M473.7,301.4v2.1h0c0.1-0.3,0.3-0.7,0.6-1c0.2-0.3,0.5-0.5,0.8-0.8c0.3-0.2,0.7-0.4,1-0.5c0.4-0.1,0.7-0.2,1.1-0.2
		c0.2,0,0.4,0,0.7,0.1v2.8c-0.1,0-0.3-0.1-0.5-0.1c-0.2,0-0.4,0-0.6,0c-0.6,0-1,0.1-1.4,0.3c-0.4,0.2-0.7,0.4-0.9,0.8
		c-0.2,0.3-0.4,0.7-0.5,1.1c-0.1,0.4-0.2,0.9-0.2,1.4v5h-3.1v-11.1H473.7z"/>
	<path d="M482,309.9c0.5,0.4,1.1,0.7,2,0.7c0.6,0,1.1-0.2,1.6-0.5c0.4-0.3,0.7-0.6,0.8-1h2.7c-0.4,1.3-1.1,2.3-2,2.9
		c-0.9,0.6-2,0.9-3.2,0.9c-0.9,0-1.7-0.1-2.4-0.4c-0.7-0.3-1.3-0.7-1.8-1.2c-0.5-0.5-0.9-1.1-1.1-1.8c-0.3-0.7-0.4-1.5-0.4-2.4
		c0-0.8,0.1-1.6,0.4-2.3c0.3-0.7,0.7-1.3,1.2-1.9c0.5-0.5,1.1-0.9,1.8-1.2c0.7-0.3,1.5-0.5,2.3-0.5c0.9,0,1.8,0.2,2.5,0.5
		c0.7,0.4,1.3,0.9,1.7,1.5c0.5,0.6,0.8,1.3,1,2.1c0.2,0.8,0.3,1.6,0.2,2.5h-8C481.3,308.7,481.5,309.4,482,309.9z M485.4,304
		c-0.4-0.4-0.9-0.6-1.7-0.6c-0.5,0-0.9,0.1-1.2,0.2c-0.3,0.2-0.6,0.4-0.8,0.6c-0.2,0.2-0.3,0.5-0.4,0.8c-0.1,0.3-0.1,0.5-0.1,0.7h5
		C486.1,305,485.8,304.4,485.4,304z"/>
	<path d="M493.1,309.8c0.1,0.2,0.3,0.4,0.5,0.6c0.2,0.1,0.5,0.3,0.7,0.3c0.3,0.1,0.6,0.1,0.9,0.1c0.2,0,0.4,0,0.7-0.1
		c0.2,0,0.5-0.1,0.6-0.2c0.2-0.1,0.4-0.3,0.5-0.4c0.1-0.2,0.2-0.4,0.2-0.7c0-0.5-0.3-0.8-0.9-1c-0.6-0.2-1.5-0.5-2.5-0.7
		c-0.4-0.1-0.9-0.2-1.3-0.4c-0.4-0.1-0.8-0.3-1.1-0.5c-0.3-0.2-0.6-0.5-0.8-0.8c-0.2-0.3-0.3-0.7-0.3-1.2c0-0.7,0.1-1.3,0.4-1.8
		c0.3-0.5,0.6-0.8,1.1-1.1c0.5-0.3,1-0.5,1.6-0.6c0.6-0.1,1.2-0.2,1.8-0.2c0.6,0,1.2,0.1,1.8,0.2c0.6,0.1,1.1,0.3,1.5,0.6
		c0.4,0.3,0.8,0.6,1.1,1.1c0.3,0.5,0.5,1,0.5,1.7h-2.9c0-0.6-0.3-1-0.7-1.2c-0.4-0.2-0.9-0.3-1.4-0.3c-0.2,0-0.4,0-0.6,0
		c-0.2,0-0.4,0.1-0.5,0.1c-0.2,0.1-0.3,0.2-0.4,0.3c-0.1,0.1-0.2,0.3-0.2,0.5c0,0.3,0.1,0.5,0.3,0.7c0.2,0.2,0.5,0.3,0.8,0.4
		c0.3,0.1,0.7,0.2,1.1,0.3c0.4,0.1,0.8,0.2,1.3,0.3c0.4,0.1,0.9,0.2,1.3,0.4c0.4,0.1,0.8,0.3,1.1,0.6c0.3,0.2,0.6,0.5,0.8,0.9
		c0.2,0.4,0.3,0.8,0.3,1.3c0,0.7-0.1,1.3-0.4,1.8c-0.3,0.5-0.7,0.9-1.2,1.2c-0.5,0.3-1,0.5-1.6,0.6c-0.6,0.1-1.2,0.2-1.9,0.2
		c-0.6,0-1.3-0.1-1.9-0.2c-0.6-0.1-1.2-0.3-1.6-0.6c-0.5-0.3-0.9-0.7-1.2-1.2c-0.3-0.5-0.5-1.1-0.5-1.9h2.9
		C492.9,309.2,493,309.5,493.1,309.8z"/>
</g>
<path d="M291.3,292v27.3h27.3V292H291.3z M300.8,312.4h-2.9V302h2.9V312.4z M300.8,300.4h-2.9v-2.4h2.9V300.4z M312.9,300.7H306v3.3
	h6v2.5h-6v5.9h-3.2v-14.4h10.1V300.7z"/>
</svg>
