<?xml version="1.0" encoding="utf-8"?>
<!-- Generator: Adobe Illustrator 18.1.1, SVG Export Plug-In . SVG Version: 6.00 Build 0)  -->
<svg version="1.1" id="Layer_1" xmlns="http://www.w3.org/2000/svg" xmlns:xlink="http://www.w3.org/1999/xlink" x="0px" y="0px"
	 width="161.6px" height="21.1px" viewBox="0 0 161.6 21.1" style="enable-background:new 0 0 161.6 21.1;" xml:space="preserve">
<g>
	<path style="fill:#FFFFFF;" d="M27.6,5.9V4H30v1.9H27.6z M29.9,7.3v8.6h-2.3V7.3H29.9z"/>
	<path style="fill:#FFFFFF;" d="M33.3,7.3v1.2h0.1c0.3-0.5,0.7-0.9,1.2-1.1C35,7.1,35.5,7,36,7c0.6,0,1.2,0.1,1.5,0.2
		c0.4,0.2,0.7,0.4,0.9,0.7c0.2,0.3,0.4,0.7,0.5,1.1c0.1,0.5,0.2,0.9,0.2,1.5v5.3h-2.4V11c0-0.7-0.1-1.2-0.3-1.6
		c-0.2-0.4-0.6-0.5-1.2-0.5c-0.6,0-1.1,0.2-1.4,0.5c-0.3,0.4-0.5,1-0.5,1.9v4.5H31V7.2L33.3,7.3L33.3,7.3z"/>
	<path style="fill:#FFFFFF;" d="M45.1,7.3v1.5h-1.7v4.2c0,0.4,0.1,0.7,0.2,0.8c0.2,0.2,0.4,0.2,0.8,0.2c0.2,0,0.2,0,0.4,0
		c0.2,0,0.2,0,0.4-0.1v1.9c-0.2,0-0.4,0.1-0.7,0.1c-0.2,0-0.5,0-0.7,0c-0.4,0-0.7,0-1-0.1s-0.6-0.2-0.9-0.3
		c-0.2-0.2-0.5-0.4-0.6-0.6c-0.2-0.2-0.2-0.6-0.2-1.1V8.7h-1.5V7.2H41V4.6h2.4v2.5L45.1,7.3L45.1,7.3z"/>
	<path style="fill:#FFFFFF;" d="M48.3,13.8c0.4,0.3,0.9,0.5,1.5,0.5c0.5,0,0.9-0.2,1.2-0.4c0.3-0.2,0.5-0.5,0.6-0.8h2.1
		c-0.3,1-0.9,1.8-1.5,2.2s-1.5,0.7-2.5,0.7c-0.7,0-1.3-0.1-1.9-0.3c-0.5-0.2-1-0.5-1.4-0.9c-0.4-0.4-0.7-0.9-0.9-1.4
		c-0.2-0.5-0.3-1.2-0.3-1.9c0-0.6,0.1-1.2,0.3-1.8c0.2-0.5,0.5-1,0.9-1.5C47,8,47.4,7.7,48,7.5c0.5-0.2,1.2-0.4,1.8-0.4
		c0.7,0,1.4,0.2,1.9,0.4c0.5,0.3,1,0.7,1.3,1.2c0.4,0.5,0.6,1,0.8,1.6c0.2,0.6,0.2,1.2,0.2,1.9h-6.2C47.8,12.9,47.9,13.5,48.3,13.8z
		 M50.9,9.3c-0.3-0.3-0.7-0.5-1.3-0.5c-0.4,0-0.7,0.1-0.9,0.2c-0.2,0.2-0.5,0.3-0.6,0.5c-0.2,0.2-0.2,0.4-0.3,0.6s-0.1,0.4-0.1,0.5
		h3.9C51.4,10,51.2,9.7,50.9,9.3z"/>
	<path style="fill:#FFFFFF;" d="M56.8,7.3v1.2h0.1C57.2,8,57.6,7.6,58,7.3C58.5,7.1,59,7,59.5,7c0.6,0,1.2,0.1,1.5,0.2
		C61.4,7.4,61.7,7.6,62,8c0.2,0.3,0.4,0.7,0.5,1.1c0.1,0.5,0.2,0.9,0.2,1.5v5.3h-2.4V11c0-0.7-0.1-1.2-0.3-1.6
		c-0.2-0.4-0.6-0.5-1.2-0.5c-0.6,0-1.1,0.2-1.4,0.5c-0.3,0.4-0.5,1-0.5,1.9v4.5h-2.4V7.2L56.8,7.3L56.8,7.3z"/>
	<path style="fill:#FFFFFF;" d="M68.5,7.3v1.5h-1.7v4.2c0,0.4,0.1,0.7,0.2,0.8c0.2,0.2,0.4,0.2,0.8,0.2c0.2,0,0.2,0,0.4,0
		c0.2,0,0.2,0,0.4-0.1v1.9c-0.2,0-0.4,0.1-0.7,0.1c-0.2,0-0.5,0-0.7,0c-0.4,0-0.7,0-1-0.1c-0.3-0.1-0.6-0.2-0.9-0.3
		c-0.2-0.2-0.5-0.4-0.6-0.6c-0.2-0.2-0.2-0.6-0.2-1.1V8.7h-1.5V7.2h1.5V4.6h2.4v2.5L68.5,7.3L68.5,7.3z"/>
	<path style="fill:#FFFFFF;" d="M69.6,5.9V4H72v1.9H69.6z M72,7.3v8.6h-2.4V7.3H72z"/>
	<path style="fill:#FFFFFF;" d="M73.2,9.7c0.2-0.5,0.5-1,0.9-1.4C74.5,8,75,7.6,75.5,7.4c0.5-0.2,1.2-0.3,1.9-0.3s1.3,0.1,1.9,0.3
		c0.5,0.2,1,0.5,1.4,0.9c0.4,0.4,0.7,0.9,0.9,1.4c0.2,0.5,0.3,1.2,0.3,1.9s-0.1,1.3-0.3,1.9c-0.2,0.5-0.5,1-0.9,1.4
		c-0.4,0.4-0.9,0.7-1.4,0.9c-0.5,0.2-1.2,0.3-1.9,0.3S76,16,75.5,15.8c-0.5-0.2-1-0.5-1.4-0.9c-0.4-0.4-0.7-0.9-0.9-1.4
		c-0.2-0.5-0.3-1.2-0.3-1.9S72.9,10.3,73.2,9.7z M75.3,12.6c0.1,0.3,0.2,0.6,0.3,0.9c0.2,0.2,0.4,0.5,0.6,0.6c0.2,0.2,0.6,0.2,1,0.2
		c0.4,0,0.8-0.1,1-0.2c0.2-0.2,0.5-0.4,0.6-0.6c0.2-0.2,0.3-0.5,0.3-0.9c0.1-0.3,0.1-0.7,0.1-1c0-0.3,0-0.7-0.1-1
		c-0.1-0.3-0.2-0.6-0.3-0.9c-0.2-0.2-0.4-0.5-0.6-0.6c-0.3-0.2-0.6-0.2-1-0.2c-0.4,0-0.7,0.1-1,0.2c-0.2,0.2-0.5,0.4-0.6,0.6
		c-0.2,0.2-0.3,0.5-0.3,0.9c-0.1,0.3-0.1,0.7-0.1,1C75.3,12,75.3,12.3,75.3,12.6z"/>
	<path style="fill:#FFFFFF;" d="M84.8,7.3v1.2h0.1C85.2,8,85.5,7.6,86,7.3C86.5,7.1,86.9,7,87.5,7c0.6,0,1.2,0.1,1.5,0.2
		c0.4,0.2,0.7,0.4,0.9,0.7c0.2,0.3,0.4,0.7,0.5,1.1c0.1,0.5,0.2,0.9,0.2,1.5v5.3h-2.4V11c0-0.7-0.1-1.2-0.3-1.6
		c-0.2-0.4-0.6-0.5-1.2-0.5c-0.6,0-1.1,0.2-1.4,0.5c-0.3,0.4-0.5,1-0.5,1.9v4.5h-2.4V7.2L84.8,7.3L84.8,7.3z"/>
	<path style="fill:#FFFFFF;" d="M92,8.6c0.2-0.4,0.5-0.7,0.9-0.9c0.4-0.2,0.8-0.4,1.2-0.5c0.5-0.1,0.9-0.2,1.4-0.2
		c0.5,0,0.9,0,1.3,0.1c0.5,0.1,0.9,0.2,1.2,0.4C98.4,7.7,98.8,8,99,8.3c0.2,0.3,0.4,0.8,0.4,1.2v4.5c0,0.4,0,0.8,0.1,1.1
		c0.1,0.4,0.2,0.6,0.2,0.8h-2.4c-0.1-0.2-0.1-0.2-0.1-0.4c0-0.2-0.1-0.3-0.1-0.4c-0.4,0.4-0.9,0.7-1.3,0.9c-0.5,0.2-1,0.2-1.5,0.2
		c-0.4,0-0.8-0.1-1.2-0.2c-0.4-0.1-0.7-0.2-0.9-0.5c-0.2-0.2-0.5-0.5-0.6-0.8c-0.2-0.3-0.2-0.7-0.2-1.2s0.1-0.9,0.2-1.2
		c0.2-0.3,0.4-0.5,0.7-0.8c0.3-0.2,0.6-0.3,0.9-0.4c0.4-0.1,0.7-0.2,1.1-0.2c0.4-0.1,0.7-0.1,1.1-0.2c0.3,0,0.6-0.1,0.9-0.2
		c0.2-0.1,0.5-0.2,0.6-0.3c0.2-0.2,0.2-0.3,0.2-0.5c0-0.2-0.1-0.5-0.2-0.6c-0.1-0.2-0.2-0.2-0.3-0.4c-0.2-0.1-0.3-0.2-0.5-0.2
		s-0.4-0.1-0.6-0.1c-0.5,0-0.9,0.1-1.1,0.3c-0.2,0.2-0.4,0.5-0.5,1h-2.4C91.6,9.4,91.7,9,92,8.6z M96.7,11.9
		c-0.2,0.1-0.3,0.1-0.5,0.2c-0.2,0-0.4,0.1-0.5,0.1c-0.2,0-0.4,0.1-0.5,0.1s-0.4,0.1-0.5,0.2c-0.2,0.1-0.3,0.2-0.5,0.2
		c-0.2,0.1-0.2,0.2-0.3,0.4c-0.1,0.2-0.2,0.3-0.2,0.5c0,0.2,0,0.4,0.2,0.5c0.1,0.2,0.2,0.2,0.3,0.3c0.2,0.1,0.3,0.2,0.5,0.2
		s0.4,0.1,0.5,0.1c0.5,0,0.9-0.1,1.1-0.2c0.2-0.2,0.5-0.3,0.5-0.5c0.2-0.2,0.2-0.5,0.2-0.6c0-0.2,0.1-0.4,0.1-0.5v-0.9
		C96.9,11.7,96.8,11.8,96.7,11.9z"/>
	<path style="fill:#FFFFFF;" d="M102.9,4v11.9h-2.4V4H102.9z"/>
	<path style="fill:#FFFFFF;" d="M107.7,8.9V7.3h1.4V6.6c0-0.8,0.2-1.4,0.7-1.9c0.5-0.5,1.2-0.7,2.2-0.7c0.2,0,0.4,0,0.6,0
		c0.2,0,0.4,0,0.6,0.1V6c-0.3,0-0.5-0.1-0.9-0.1c-0.3,0-0.5,0.1-0.7,0.2c-0.2,0.2-0.2,0.4-0.2,0.8v0.5h1.6V9h-1.6v7H109V9L107.7,8.9
		L107.7,8.9z"/>
	<path style="fill:#FFFFFF;" d="M119.9,15.9v-1.2h-0.1c-0.3,0.5-0.7,0.9-1.2,1.1s-0.9,0.3-1.5,0.3c-0.6,0-1.2-0.1-1.5-0.2
		c-0.4-0.2-0.7-0.4-0.9-0.7c-0.2-0.3-0.4-0.7-0.5-1.1c-0.1-0.5-0.2-0.9-0.2-1.5V7.3h2.4v4.9c0,0.7,0.1,1.2,0.3,1.6
		c0.2,0.4,0.6,0.5,1.2,0.5c0.6,0,1.1-0.2,1.4-0.5c0.3-0.4,0.5-1,0.5-1.9V7.5h2.4v8.6h-2.3V15.9z"/>
	<path style="fill:#FFFFFF;" d="M128.6,7.3v1.5h-1.7v4.2c0,0.4,0.1,0.7,0.2,0.8c0.2,0.2,0.4,0.2,0.8,0.2c0.2,0,0.2,0,0.4,0
		s0.2,0,0.4-0.1v1.9c-0.2,0-0.4,0.1-0.7,0.1c-0.2,0-0.5,0-0.7,0c-0.4,0-0.7,0-1-0.1c-0.3-0.1-0.6-0.2-0.8-0.3
		c-0.2-0.2-0.5-0.4-0.6-0.6c-0.2-0.2-0.2-0.6-0.2-1.1V8.7h-1.4V7.2h1.4V4.6h2.4v2.5L128.6,7.3L128.6,7.3z"/>
	<path style="fill:#FFFFFF;" d="M135.5,15.9v-1.2h-0.1c-0.3,0.5-0.7,0.9-1.2,1.1s-0.9,0.3-1.5,0.3c-0.6,0-1.2-0.1-1.5-0.2
		c-0.4-0.2-0.7-0.4-0.9-0.7c-0.2-0.3-0.4-0.7-0.5-1.1c-0.1-0.5-0.2-0.9-0.2-1.5V7.3h2.4v4.9c0,0.7,0.1,1.2,0.3,1.6
		c0.2,0.4,0.6,0.5,1.2,0.5c0.6,0,1.1-0.2,1.4-0.5c0.3-0.4,0.5-1,0.5-1.9V7.5h2.4v8.6h-2.3V15.9z"/>
	<path style="fill:#FFFFFF;" d="M140.9,7.3v1.6l0,0c0.1-0.2,0.2-0.5,0.5-0.8c0.2-0.2,0.4-0.4,0.6-0.6c0.2-0.2,0.5-0.3,0.8-0.4
		c0.3-0.1,0.5-0.2,0.9-0.2c0.2,0,0.3,0,0.5,0.1v2.2c-0.1,0-0.2-0.1-0.4-0.1s-0.3,0-0.5,0c-0.5,0-0.8,0.1-1.1,0.2
		c-0.3,0.2-0.5,0.3-0.7,0.6c-0.2,0.2-0.3,0.5-0.4,0.9c-0.1,0.3-0.2,0.7-0.2,1.1v3.9h-2.4V7.2L140.9,7.3L140.9,7.3z"/>
	<path style="fill:#FFFFFF;" d="M147.4,13.8c0.4,0.3,0.9,0.5,1.5,0.5c0.5,0,0.9-0.2,1.2-0.4c0.3-0.2,0.5-0.5,0.6-0.8h2.1
		c-0.3,1-0.9,1.8-1.5,2.2s-1.5,0.7-2.5,0.7c-0.7,0-1.3-0.1-1.9-0.3c-0.5-0.2-1-0.5-1.4-0.9c-0.4-0.4-0.7-0.9-0.9-1.4
		c-0.2-0.5-0.3-1.2-0.3-1.9c0-0.6,0.1-1.2,0.3-1.8c0.2-0.5,0.5-1,0.9-1.5c0.4-0.4,0.9-0.7,1.4-0.9c0.5-0.2,1.2-0.4,1.8-0.4
		c0.7,0,1.4,0.2,1.9,0.4c0.5,0.3,1,0.7,1.3,1.2c0.4,0.5,0.6,1,0.8,1.6c0.2,0.6,0.2,1.2,0.2,1.9h-6.2C146.8,12.9,147,13.5,147.4,13.8
		z M150,9.3c-0.3-0.3-0.7-0.5-1.3-0.5c-0.4,0-0.7,0.1-0.9,0.2c-0.2,0.2-0.5,0.3-0.6,0.5c-0.2,0.2-0.2,0.4-0.3,0.6
		c-0.1,0.2-0.1,0.4-0.1,0.5h3.9C150.5,10,150.3,9.7,150,9.3z"/>
	<path style="fill:#FFFFFF;" d="M155.9,13.8c0.1,0.2,0.2,0.3,0.4,0.5c0.2,0.1,0.4,0.2,0.5,0.2c0.2,0.1,0.5,0.1,0.7,0.1
		c0.2,0,0.3,0,0.5-0.1c0.2,0,0.4-0.1,0.5-0.2c0.2-0.1,0.3-0.2,0.4-0.3c0.1-0.2,0.2-0.3,0.2-0.5c0-0.4-0.2-0.6-0.7-0.8
		c-0.5-0.2-1.2-0.4-1.9-0.5c-0.3-0.1-0.7-0.2-1-0.3c-0.3-0.1-0.6-0.2-0.9-0.4c-0.2-0.2-0.5-0.4-0.6-0.6c-0.2-0.2-0.2-0.5-0.2-0.9
		c0-0.5,0.1-1,0.3-1.4s0.5-0.6,0.9-0.9c0.4-0.2,0.8-0.4,1.2-0.5c0.5-0.1,0.9-0.2,1.4-0.2c0.5,0,0.9,0.1,1.4,0.2
		c0.5,0.1,0.9,0.2,1.2,0.5c0.3,0.2,0.6,0.5,0.9,0.9c0.2,0.4,0.4,0.8,0.4,1.3h-2.2c0-0.5-0.2-0.8-0.5-0.9c-0.3-0.2-0.7-0.2-1.1-0.2
		c-0.2,0-0.3,0-0.5,0s-0.3,0.1-0.4,0.1c-0.2,0.1-0.2,0.2-0.3,0.2c-0.1,0.1-0.2,0.2-0.2,0.4c0,0.2,0.1,0.4,0.2,0.5
		c0.2,0.2,0.4,0.2,0.6,0.3c0.2,0.1,0.5,0.2,0.9,0.2c0.3,0.1,0.6,0.2,1,0.2c0.3,0.1,0.7,0.2,1,0.3c0.3,0.1,0.6,0.2,0.9,0.5
		c0.2,0.2,0.5,0.4,0.6,0.7c0.2,0.3,0.2,0.6,0.2,1c0,0.5-0.1,1-0.3,1.4c-0.2,0.4-0.5,0.7-0.9,0.9c-0.4,0.2-0.8,0.4-1.2,0.5
		c-0.5,0.1-0.9,0.2-1.5,0.2c-0.5,0-1-0.1-1.5-0.2c-0.5-0.1-0.9-0.2-1.2-0.5c-0.4-0.2-0.7-0.5-0.9-0.9c-0.2-0.4-0.4-0.9-0.4-1.5h2.2
		C155.8,13.4,155.9,13.6,155.9,13.8z"/>
</g>
<path style="fill:#FFFFFF;" d="M0,0v21.1h21.1V0H0z M7.3,15.8H5.1v-8h2.2V15.8z M7.3,6.6H5.1V4.7h2.2V6.6z M16.7,6.8h-5.3v2.5H16
	v1.9h-4.6v4.6H8.9V4.7h7.8V6.8z"/>
</svg>
