<?xml version="1.0" encoding="utf-8"?>
<!-- Generator: Adobe Illustrator 18.1.1, SVG Export Plug-In . SVG Version: 6.00 Build 0)  -->
<svg version="1.1" id="Layer_1" xmlns="http://www.w3.org/2000/svg" xmlns:xlink="http://www.w3.org/1999/xlink" x="0px" y="0px"
	 viewBox="0 0 792 612" enable-background="new 0 0 792 612" xml:space="preserve">
<g>
	<path fill="#FFFFFF" d="M328,299.4v-2.5h3.1v2.5H328z M331,301.1v11.1H328v-11.1H331z"/>
	<path fill="#FFFFFF" d="M335.4,301.1v1.5h0.1c0.4-0.6,0.9-1.1,1.5-1.4c0.6-0.3,1.2-0.4,1.9-0.4c0.8,0,1.5,0.1,2,0.3
		c0.5,0.2,0.9,0.5,1.2,0.9c0.3,0.4,0.5,0.9,0.6,1.4c0.1,0.6,0.2,1.2,0.2,1.9v6.8h-3.1V306c0-0.9-0.1-1.6-0.4-2.1
		c-0.3-0.5-0.8-0.7-1.5-0.7c-0.8,0-1.4,0.2-1.8,0.7c-0.4,0.5-0.6,1.3-0.6,2.4v5.8h-3.1v-11.1H335.4z"/>
	<path fill="#FFFFFF" d="M350.6,301.1v2h-2.2v5.5c0,0.5,0.1,0.9,0.3,1c0.2,0.2,0.5,0.3,1,0.3c0.2,0,0.3,0,0.5,0c0.2,0,0.3,0,0.5-0.1
		v2.4c-0.3,0-0.5,0.1-0.9,0.1c-0.3,0-0.6,0-0.9,0c-0.5,0-0.9,0-1.3-0.1c-0.4-0.1-0.8-0.2-1.1-0.4c-0.3-0.2-0.6-0.5-0.8-0.8
		c-0.2-0.3-0.3-0.8-0.3-1.4v-6.6h-1.9v-2h1.9v-3.3h3.1v3.3H350.6z"/>
	<path fill="#FFFFFF" d="M354.8,309.6c0.5,0.4,1.1,0.7,2,0.7c0.6,0,1.1-0.2,1.6-0.5c0.4-0.3,0.7-0.6,0.8-1h2.7
		c-0.4,1.3-1.1,2.3-2,2.9c-0.9,0.6-2,0.9-3.2,0.9c-0.9,0-1.7-0.1-2.4-0.4c-0.7-0.3-1.3-0.7-1.8-1.2c-0.5-0.5-0.9-1.1-1.1-1.8
		c-0.3-0.7-0.4-1.5-0.4-2.4c0-0.8,0.1-1.6,0.4-2.3c0.3-0.7,0.7-1.3,1.2-1.9c0.5-0.5,1.1-0.9,1.8-1.2c0.7-0.3,1.5-0.5,2.3-0.5
		c0.9,0,1.8,0.2,2.5,0.5c0.7,0.4,1.3,0.9,1.7,1.5c0.5,0.6,0.8,1.3,1,2.1c0.2,0.8,0.3,1.6,0.2,2.5h-8
		C354.1,308.4,354.3,309.2,354.8,309.6z M358.2,303.8c-0.4-0.4-0.9-0.6-1.7-0.6c-0.5,0-0.9,0.1-1.2,0.2c-0.3,0.2-0.6,0.4-0.8,0.6
		c-0.2,0.2-0.3,0.5-0.4,0.8c-0.1,0.3-0.1,0.5-0.1,0.7h5C358.8,304.7,358.6,304.2,358.2,303.8z"/>
	<path fill="#FFFFFF" d="M365.8,301.1v1.5h0.1c0.4-0.6,0.9-1.1,1.5-1.4c0.6-0.3,1.2-0.4,1.9-0.4c0.8,0,1.5,0.1,2,0.3
		c0.5,0.2,0.9,0.5,1.2,0.9c0.3,0.4,0.5,0.9,0.6,1.4c0.1,0.6,0.2,1.2,0.2,1.9v6.8h-3.1V306c0-0.9-0.1-1.6-0.4-2.1
		c-0.3-0.5-0.8-0.7-1.5-0.7c-0.8,0-1.4,0.2-1.8,0.7c-0.4,0.5-0.6,1.3-0.6,2.4v5.8h-3.1v-11.1H365.8z"/>
	<path fill="#FFFFFF" d="M381,301.1v2h-2.2v5.5c0,0.5,0.1,0.9,0.3,1c0.2,0.2,0.5,0.3,1,0.3c0.2,0,0.3,0,0.5,0c0.2,0,0.3,0,0.5-0.1
		v2.4c-0.3,0-0.5,0.1-0.9,0.1c-0.3,0-0.6,0-0.9,0c-0.5,0-0.9,0-1.3-0.1c-0.4-0.1-0.8-0.2-1.1-0.4c-0.3-0.2-0.6-0.5-0.8-0.8
		c-0.2-0.3-0.3-0.8-0.3-1.4v-6.6h-1.9v-2h1.9v-3.3h3.1v3.3H381z"/>
	<path fill="#FFFFFF" d="M382.4,299.4v-2.5h3.1v2.5H382.4z M385.5,301.1v11.1h-3.1v-11.1H385.5z"/>
	<path fill="#FFFFFF" d="M387,304.3c0.3-0.7,0.7-1.3,1.2-1.8c0.5-0.5,1.1-0.9,1.8-1.2c0.7-0.3,1.5-0.4,2.4-0.4
		c0.9,0,1.7,0.1,2.4,0.4c0.7,0.3,1.3,0.7,1.8,1.2c0.5,0.5,0.9,1.1,1.2,1.8c0.3,0.7,0.4,1.5,0.4,2.4s-0.1,1.7-0.4,2.4
		c-0.3,0.7-0.7,1.3-1.2,1.8c-0.5,0.5-1.1,0.9-1.8,1.2c-0.7,0.3-1.5,0.4-2.4,0.4c-0.9,0-1.7-0.1-2.4-0.4c-0.7-0.3-1.3-0.7-1.8-1.2
		c-0.5-0.5-0.9-1.1-1.2-1.8c-0.3-0.7-0.4-1.5-0.4-2.4S386.7,305,387,304.3z M389.8,308c0.1,0.4,0.2,0.8,0.4,1.1
		c0.2,0.3,0.5,0.6,0.8,0.8c0.3,0.2,0.8,0.3,1.3,0.3c0.5,0,1-0.1,1.3-0.3c0.3-0.2,0.6-0.5,0.8-0.8c0.2-0.3,0.4-0.7,0.4-1.1
		c0.1-0.4,0.1-0.9,0.1-1.3c0-0.4,0-0.9-0.1-1.3c-0.1-0.4-0.2-0.8-0.4-1.1c-0.2-0.3-0.5-0.6-0.8-0.8c-0.4-0.2-0.8-0.3-1.3-0.3
		c-0.5,0-0.9,0.1-1.3,0.3c-0.3,0.2-0.6,0.5-0.8,0.8c-0.2,0.3-0.4,0.7-0.4,1.1c-0.1,0.4-0.1,0.9-0.1,1.3
		C389.7,307.2,389.7,307.6,389.8,308z"/>
	<path fill="#FFFFFF" d="M402,301.1v1.5h0.1c0.4-0.6,0.9-1.1,1.5-1.4c0.6-0.3,1.2-0.4,1.9-0.4c0.8,0,1.5,0.1,2,0.3
		c0.5,0.2,0.9,0.5,1.2,0.9c0.3,0.4,0.5,0.9,0.6,1.4c0.1,0.6,0.2,1.2,0.2,1.9v6.8h-3.1V306c0-0.9-0.1-1.6-0.4-2.1
		c-0.3-0.5-0.8-0.7-1.5-0.7c-0.8,0-1.4,0.2-1.8,0.7c-0.4,0.5-0.6,1.3-0.6,2.4v5.8h-3.1v-11.1H402z"/>
	<path fill="#FFFFFF" d="M411.3,302.8c0.3-0.5,0.7-0.9,1.2-1.1c0.5-0.3,1-0.5,1.6-0.6c0.6-0.1,1.2-0.2,1.8-0.2c0.6,0,1.1,0,1.7,0.1
		c0.6,0.1,1.1,0.2,1.6,0.5c0.5,0.2,0.9,0.5,1.2,1c0.3,0.4,0.5,1,0.5,1.6v5.8c0,0.5,0,1,0.1,1.4c0.1,0.5,0.2,0.8,0.3,1h-3.1
		c-0.1-0.2-0.1-0.3-0.1-0.5c0-0.2-0.1-0.4-0.1-0.5c-0.5,0.5-1.1,0.9-1.7,1.1c-0.7,0.2-1.3,0.3-2,0.3c-0.5,0-1-0.1-1.5-0.2
		c-0.5-0.1-0.9-0.3-1.2-0.6c-0.3-0.3-0.6-0.6-0.8-1c-0.2-0.4-0.3-0.9-0.3-1.5c0-0.6,0.1-1.2,0.3-1.6c0.2-0.4,0.5-0.7,0.9-1
		c0.4-0.2,0.8-0.4,1.2-0.5c0.5-0.1,0.9-0.2,1.4-0.3c0.5-0.1,0.9-0.1,1.4-0.2c0.4,0,0.8-0.1,1.2-0.2c0.3-0.1,0.6-0.2,0.8-0.4
		c0.2-0.2,0.3-0.4,0.3-0.7c0-0.3-0.1-0.6-0.2-0.8c-0.1-0.2-0.2-0.3-0.4-0.5c-0.2-0.1-0.4-0.2-0.6-0.2c-0.2,0-0.5-0.1-0.8-0.1
		c-0.6,0-1.1,0.1-1.4,0.4c-0.3,0.3-0.5,0.7-0.6,1.3h-3.1C410.8,303.9,411,303.3,411.3,302.8z M417.4,307.1c-0.2,0.1-0.4,0.1-0.6,0.2
		c-0.2,0-0.5,0.1-0.7,0.1c-0.2,0-0.5,0.1-0.7,0.1c-0.2,0-0.5,0.1-0.7,0.2c-0.2,0.1-0.4,0.2-0.6,0.3c-0.2,0.1-0.3,0.3-0.4,0.5
		c-0.1,0.2-0.2,0.4-0.2,0.7c0,0.3,0,0.5,0.2,0.7c0.1,0.2,0.2,0.3,0.4,0.4c0.2,0.1,0.4,0.2,0.6,0.2c0.2,0,0.5,0.1,0.7,0.1
		c0.6,0,1.1-0.1,1.4-0.3c0.3-0.2,0.6-0.4,0.7-0.7c0.2-0.3,0.3-0.6,0.3-0.8c0-0.3,0.1-0.5,0.1-0.7v-1.1
		C417.7,306.9,417.6,307,417.4,307.1z"/>
	<path fill="#FFFFFF" d="M425.5,296.9v15.4h-3.1v-15.4H425.5z"/>
	<path fill="#FFFFFF" d="M431.7,303.2v-2h1.8v-0.9c0-1,0.3-1.8,0.9-2.4c0.6-0.6,1.6-0.9,2.8-0.9c0.3,0,0.5,0,0.8,0
		c0.3,0,0.5,0,0.8,0.1v2.3c-0.4,0-0.7-0.1-1.1-0.1c-0.4,0-0.7,0.1-0.9,0.3c-0.2,0.2-0.3,0.5-0.3,1v0.7h2.1v2h-2.1v9.1h-3.1v-9.1
		H431.7z"/>
	<path fill="#FFFFFF" d="M447.5,312.3v-1.6h-0.1c-0.4,0.6-0.9,1.1-1.5,1.4c-0.6,0.3-1.2,0.4-1.9,0.4c-0.8,0-1.5-0.1-2-0.3
		c-0.5-0.2-0.9-0.5-1.2-0.9c-0.3-0.4-0.5-0.9-0.6-1.4c-0.1-0.6-0.2-1.2-0.2-1.9v-6.8h3.1v6.3c0,0.9,0.1,1.6,0.4,2.1
		c0.3,0.5,0.8,0.7,1.5,0.7c0.8,0,1.4-0.2,1.8-0.7c0.4-0.5,0.6-1.3,0.6-2.4v-5.8h3.1v11.1H447.5z"/>
	<path fill="#FFFFFF" d="M458.7,301.1v2h-2.2v5.5c0,0.5,0.1,0.9,0.3,1c0.2,0.2,0.5,0.3,1,0.3c0.2,0,0.3,0,0.5,0c0.2,0,0.3,0,0.5-0.1
		v2.4c-0.3,0-0.5,0.1-0.9,0.1c-0.3,0-0.6,0-0.9,0c-0.5,0-0.9,0-1.3-0.1c-0.4-0.1-0.8-0.2-1.1-0.4c-0.3-0.2-0.6-0.5-0.8-0.8
		c-0.2-0.3-0.3-0.8-0.3-1.4v-6.6h-1.8v-2h1.8v-3.3h3.1v3.3H458.7z"/>
	<path fill="#FFFFFF" d="M467.6,312.3v-1.6h-0.1c-0.4,0.6-0.9,1.1-1.5,1.4c-0.6,0.3-1.2,0.4-1.9,0.4c-0.8,0-1.5-0.1-2-0.3
		c-0.5-0.2-0.9-0.5-1.2-0.9c-0.3-0.4-0.5-0.9-0.6-1.4c-0.1-0.6-0.2-1.2-0.2-1.9v-6.8h3.1v6.3c0,0.9,0.1,1.6,0.4,2.1
		c0.3,0.5,0.8,0.7,1.5,0.7c0.8,0,1.4-0.2,1.8-0.7c0.4-0.5,0.6-1.3,0.6-2.4v-5.8h3.1v11.1H467.6z"/>
	<path fill="#FFFFFF" d="M474.7,301.1v2.1h0c0.1-0.3,0.3-0.7,0.6-1c0.2-0.3,0.5-0.5,0.8-0.8c0.3-0.2,0.7-0.4,1-0.5
		c0.4-0.1,0.7-0.2,1.1-0.2c0.2,0,0.4,0,0.7,0.1v2.8c-0.1,0-0.3-0.1-0.5-0.1c-0.2,0-0.4,0-0.6,0c-0.6,0-1,0.1-1.4,0.3
		c-0.4,0.2-0.7,0.4-0.9,0.8c-0.2,0.3-0.4,0.7-0.5,1.1c-0.1,0.4-0.2,0.9-0.2,1.4v5h-3.1v-11.1H474.7z"/>
	<path fill="#FFFFFF" d="M483,309.6c0.5,0.4,1.1,0.7,2,0.7c0.6,0,1.1-0.2,1.6-0.5c0.4-0.3,0.7-0.6,0.8-1h2.7c-0.4,1.3-1.1,2.3-2,2.9
		c-0.9,0.6-2,0.9-3.2,0.9c-0.9,0-1.7-0.1-2.4-0.4c-0.7-0.3-1.3-0.7-1.8-1.2c-0.5-0.5-0.9-1.1-1.1-1.8c-0.3-0.7-0.4-1.5-0.4-2.4
		c0-0.8,0.1-1.6,0.4-2.3c0.3-0.7,0.7-1.3,1.2-1.9c0.5-0.5,1.1-0.9,1.8-1.2c0.7-0.3,1.5-0.5,2.3-0.5c0.9,0,1.8,0.2,2.5,0.5
		c0.7,0.4,1.3,0.9,1.7,1.5c0.5,0.6,0.8,1.3,1,2.1c0.2,0.8,0.3,1.6,0.2,2.5h-8C482.3,308.4,482.5,309.2,483,309.6z M486.4,303.8
		c-0.4-0.4-0.9-0.6-1.7-0.6c-0.5,0-0.9,0.1-1.2,0.2c-0.3,0.2-0.6,0.4-0.8,0.6c-0.2,0.2-0.3,0.5-0.4,0.8c-0.1,0.3-0.1,0.5-0.1,0.7h5
		C487.1,304.7,486.8,304.2,486.4,303.8z"/>
	<path fill="#FFFFFF" d="M494.1,309.5c0.1,0.2,0.3,0.4,0.5,0.6c0.2,0.1,0.5,0.3,0.7,0.3c0.3,0.1,0.6,0.1,0.9,0.1
		c0.2,0,0.4,0,0.7-0.1c0.2,0,0.5-0.1,0.6-0.2c0.2-0.1,0.4-0.3,0.5-0.4c0.1-0.2,0.2-0.4,0.2-0.7c0-0.5-0.3-0.8-0.9-1
		c-0.6-0.2-1.5-0.5-2.5-0.7c-0.4-0.1-0.9-0.2-1.3-0.4c-0.4-0.1-0.8-0.3-1.1-0.5c-0.3-0.2-0.6-0.5-0.8-0.8c-0.2-0.3-0.3-0.7-0.3-1.2
		c0-0.7,0.1-1.3,0.4-1.8c0.3-0.5,0.6-0.8,1.1-1.1c0.5-0.3,1-0.5,1.6-0.6c0.6-0.1,1.2-0.2,1.8-0.2c0.6,0,1.2,0.1,1.8,0.2
		c0.6,0.1,1.1,0.3,1.5,0.6c0.4,0.3,0.8,0.6,1.1,1.1c0.3,0.5,0.5,1,0.5,1.7h-2.9c0-0.6-0.3-1-0.7-1.2c-0.4-0.2-0.9-0.3-1.4-0.3
		c-0.2,0-0.4,0-0.6,0c-0.2,0-0.4,0.1-0.5,0.1c-0.2,0.1-0.3,0.2-0.4,0.3c-0.1,0.1-0.2,0.3-0.2,0.5c0,0.3,0.1,0.5,0.3,0.7
		c0.2,0.2,0.5,0.3,0.8,0.4c0.3,0.1,0.7,0.2,1.1,0.3c0.4,0.1,0.8,0.2,1.3,0.3c0.4,0.1,0.9,0.2,1.3,0.4c0.4,0.1,0.8,0.3,1.1,0.6
		c0.3,0.2,0.6,0.5,0.8,0.9c0.2,0.4,0.3,0.8,0.3,1.3c0,0.7-0.1,1.3-0.4,1.8c-0.3,0.5-0.7,0.9-1.2,1.2c-0.5,0.3-1,0.5-1.6,0.6
		c-0.6,0.1-1.2,0.2-1.9,0.2c-0.6,0-1.3-0.1-1.9-0.2c-0.6-0.1-1.2-0.3-1.6-0.6c-0.5-0.3-0.9-0.7-1.2-1.2c-0.3-0.5-0.5-1.1-0.5-1.9
		h2.9C493.9,309,494,309.3,494.1,309.5z"/>
</g>
<path fill="#FFFFFF" d="M292.3,291.7v27.3h27.3v-27.3H292.3z M301.8,312.2h-2.9v-10.4h2.9V312.2z M301.8,300.2h-2.9v-2.4h2.9V300.2z
	 M313.9,300.5H307v3.3h6v2.5h-6v5.9h-3.2v-14.4h10.1V300.5z"/>
</svg>
