<?xml version="1.0" encoding="utf-8"?>
<!-- Generator: Adobe Illustrator 18.1.1, SVG Export Plug-In . SVG Version: 6.00 Build 0)  -->
<svg version="1.1" id="Layer_1" xmlns="http://www.w3.org/2000/svg" xmlns:xlink="http://www.w3.org/1999/xlink" x="0px" y="0px"
	 width="161.6px" height="21.1px" viewBox="0 0 161.6 21.1" style="enable-background:new 0 0 161.6 21.1;" xml:space="preserve">
<g>
	<path d="M27.6,6V4H30V6H27.6z M29.9,7.3v8.6h-2.3V7.3H29.9z"/>
	<path d="M33.3,7.3v1.2h0.1c0.3-0.5,0.7-0.9,1.2-1.1C35,7.1,35.5,7,36,7c0.6,0,1.2,0.1,1.5,0.2c0.4,0.2,0.7,0.4,0.9,0.7
		c0.2,0.3,0.4,0.7,0.5,1.1c0.1,0.5,0.2,0.9,0.2,1.5v5.3h-2.4v-4.9c0-0.7-0.1-1.2-0.3-1.6c-0.2-0.4-0.6-0.5-1.2-0.5
		c-0.6,0-1.1,0.2-1.4,0.5c-0.3,0.4-0.5,1-0.5,1.9v4.5H31V7h2.3V7.3z"/>
	<path d="M45.1,7.3v1.5h-1.7v4.2c0,0.4,0.1,0.7,0.2,0.8c0.2,0.2,0.4,0.2,0.8,0.2c0.2,0,0.2,0,0.4,0c0.2,0,0.2,0,0.4-0.1v1.9
		c-0.2,0-0.4,0.1-0.7,0.1c-0.2,0-0.5,0-0.7,0c-0.4,0-0.7,0-1-0.1s-0.6-0.2-0.9-0.3c-0.2-0.2-0.5-0.4-0.6-0.6
		c-0.2-0.2-0.2-0.6-0.2-1.1V8.7h-1.5V7.2H41V4.6h2.4v2.5L45.1,7.3L45.1,7.3z"/>
	<path d="M48.3,13.8c0.4,0.3,0.9,0.5,1.5,0.5c0.5,0,0.9-0.2,1.2-0.4c0.3-0.2,0.5-0.5,0.6-0.8h2.1c-0.3,1-0.9,1.8-1.5,2.2
		s-1.5,0.7-2.5,0.7c-0.7,0-1.3-0.1-1.9-0.3c-0.5-0.2-1-0.5-1.4-0.9c-0.4-0.4-0.7-0.9-0.9-1.4c-0.2-0.5-0.3-1.2-0.3-1.9
		c0-0.6,0.1-1.2,0.3-1.8c0.2-0.5,0.5-1,0.9-1.5C47,8,47.4,7.7,48,7.5c0.5-0.2,1.2-0.4,1.8-0.4c0.7,0,1.4,0.2,1.9,0.4
		c0.5,0.3,1,0.7,1.3,1.2c0.4,0.5,0.6,1,0.8,1.6c0.2,0.6,0.2,1.2,0.2,1.9h-6.2C47.8,12.9,47.9,13.4,48.3,13.8z M50.9,9.3
		c-0.3-0.3-0.7-0.5-1.3-0.5c-0.4,0-0.7,0.1-0.9,0.2c-0.2,0.2-0.5,0.3-0.6,0.5c-0.2,0.2-0.2,0.4-0.3,0.6s-0.1,0.4-0.1,0.5h3.9
		C51.4,10,51.2,9.6,50.9,9.3z"/>
	<path d="M56.8,7.3v1.2h0.1C57.2,8,57.6,7.6,58,7.3C58.5,7.1,59,7,59.5,7c0.6,0,1.2,0.1,1.5,0.2C61.4,7.4,61.7,7.6,62,8
		c0.2,0.3,0.4,0.7,0.5,1.1c0.1,0.5,0.2,0.9,0.2,1.5v5.3h-2.4v-4.9c0-0.7-0.1-1.2-0.3-1.6c-0.2-0.4-0.6-0.5-1.2-0.5
		c-0.6,0-1.1,0.2-1.4,0.5c-0.3,0.4-0.5,1-0.5,1.9v4.5h-2.4V7h2.3V7.3z"/>
	<path d="M68.5,7.3v1.5h-1.7v4.2c0,0.4,0.1,0.7,0.2,0.8c0.2,0.2,0.4,0.2,0.8,0.2c0.2,0,0.2,0,0.4,0c0.2,0,0.2,0,0.4-0.1v1.9
		c-0.2,0-0.4,0.1-0.7,0.1c-0.2,0-0.5,0-0.7,0c-0.4,0-0.7,0-1-0.1c-0.3-0.1-0.6-0.2-0.9-0.3c-0.2-0.2-0.5-0.4-0.6-0.6
		c-0.2-0.2-0.2-0.6-0.2-1.1V8.7h-1.5V7.2h1.5V4.6h2.4v2.5L68.5,7.3L68.5,7.3z"/>
	<path d="M69.6,6V4H72V6H69.6z M72,7.3v8.6h-2.4V7.3H72z"/>
	<path d="M73.2,9.7c0.2-0.5,0.5-1,0.9-1.4c0.4-0.4,0.9-0.7,1.4-0.9C76,7.1,76.7,7,77.4,7s1.3,0.1,1.9,0.3c0.5,0.2,1,0.5,1.4,0.9
		c0.4,0.4,0.7,0.9,0.9,1.4c0.2,0.5,0.3,1.2,0.3,1.9c0,0.7-0.1,1.3-0.3,1.9c-0.2,0.5-0.5,1-0.9,1.4c-0.4,0.4-0.9,0.7-1.4,0.9
		C78.7,15.9,78,16,77.4,16s-1.3-0.1-1.9-0.3c-0.5-0.2-1-0.5-1.4-0.9c-0.4-0.4-0.7-0.9-0.9-1.4c-0.2-0.5-0.3-1.2-0.3-1.9
		C72.9,10.9,72.9,10.3,73.2,9.7z M75.3,12.6c0.1,0.3,0.2,0.6,0.3,0.9c0.2,0.2,0.4,0.5,0.6,0.6c0.2,0.2,0.6,0.2,1,0.2
		c0.4,0,0.8-0.1,1-0.2c0.2-0.2,0.5-0.4,0.6-0.6c0.2-0.2,0.3-0.5,0.3-0.9c0.1-0.3,0.1-0.7,0.1-1c0-0.3,0-0.7-0.1-1
		c-0.1-0.3-0.2-0.6-0.3-0.9c-0.2-0.2-0.4-0.5-0.6-0.6c-0.3-0.2-0.6-0.2-1-0.2c-0.4,0-0.7,0.1-1,0.2c-0.2,0.2-0.5,0.4-0.6,0.6
		c-0.2,0.2-0.3,0.5-0.3,0.9c-0.1,0.3-0.1,0.7-0.1,1C75.3,11.9,75.3,12.2,75.3,12.6z"/>
	<path d="M84.8,7.3v1.2h0.1C85.2,8,85.5,7.6,86,7.3C86.5,7.1,86.9,7,87.5,7c0.6,0,1.2,0.1,1.5,0.2c0.4,0.2,0.7,0.4,0.9,0.7
		c0.2,0.3,0.4,0.7,0.5,1.1c0.1,0.5,0.2,0.9,0.2,1.5v5.3h-2.4v-4.9c0-0.7-0.1-1.2-0.3-1.6c-0.2-0.4-0.6-0.5-1.2-0.5
		c-0.6,0-1.1,0.2-1.4,0.5c-0.3,0.4-0.5,1-0.5,1.9v4.5h-2.4V7h2.3V7.3z"/>
	<path d="M92,8.5c0.2-0.4,0.5-0.7,0.9-0.9c0.4-0.2,0.8-0.4,1.2-0.5C94.6,7.1,95,7,95.5,7c0.5,0,0.9,0,1.3,0.1
		c0.5,0.1,0.9,0.2,1.2,0.4c0.4,0.2,0.7,0.4,0.9,0.8c0.2,0.3,0.4,0.8,0.4,1.2V14c0,0.4,0,0.8,0.1,1.1c0.1,0.4,0.2,0.6,0.2,0.8h-2.4
		c-0.1-0.2-0.1-0.2-0.1-0.4c0-0.2-0.1-0.3-0.1-0.4c-0.4,0.4-0.9,0.7-1.3,0.9c-0.5,0.2-1,0.2-1.5,0.2c-0.4,0-0.8-0.1-1.2-0.2
		c-0.4-0.1-0.7-0.2-0.9-0.5c-0.2-0.2-0.5-0.5-0.6-0.8c-0.2-0.3-0.2-0.7-0.2-1.2s0.1-0.9,0.2-1.2c0.2-0.3,0.4-0.5,0.7-0.8
		c0.3-0.2,0.6-0.3,0.9-0.4c0.4-0.1,0.7-0.2,1.1-0.2c0.4-0.1,0.7-0.1,1.1-0.2c0.3,0,0.6-0.1,0.9-0.2c0.2-0.1,0.5-0.2,0.6-0.3
		c0.2-0.2,0.2-0.3,0.2-0.5c0-0.2-0.1-0.5-0.2-0.6C96.9,9,96.8,9,96.7,8.8c-0.2-0.1-0.3-0.2-0.5-0.2s-0.4-0.1-0.6-0.1
		c-0.5,0-0.9,0.1-1.1,0.3c-0.2,0.2-0.4,0.5-0.5,1h-2.4C91.6,9.4,91.7,8.9,92,8.5z M96.7,11.8c-0.2,0.1-0.3,0.1-0.5,0.2
		c-0.2,0-0.4,0.1-0.5,0.1c-0.2,0-0.4,0.1-0.5,0.1s-0.4,0.1-0.5,0.2c-0.2,0.1-0.3,0.2-0.5,0.2c-0.2,0.1-0.2,0.2-0.3,0.4
		c-0.1,0.2-0.2,0.3-0.2,0.5c0,0.2,0,0.4,0.2,0.5c0.1,0.2,0.2,0.2,0.3,0.3c0.2,0.1,0.3,0.2,0.5,0.2s0.4,0.1,0.5,0.1
		c0.5,0,0.9-0.1,1.1-0.2c0.2-0.2,0.5-0.3,0.5-0.5c0.2-0.2,0.2-0.5,0.2-0.6c0-0.2,0.1-0.4,0.1-0.5v-0.9
		C96.9,11.7,96.8,11.8,96.7,11.8z"/>
	<path d="M102.9,4v11.9h-2.4V4H102.9z"/>
	<path d="M107.7,8.8V7.3h1.4V6.6c0-0.8,0.2-1.4,0.7-1.9C110.3,4.2,111,4,112,4c0.2,0,0.4,0,0.6,0c0.2,0,0.4,0,0.6,0.1v1.8
		c-0.3,0-0.5-0.1-0.9-0.1c-0.3,0-0.5,0.1-0.7,0.2c-0.2,0.2-0.2,0.4-0.2,0.8v0.5h1.6v1.5h-1.6v7H109v-7L107.7,8.8L107.7,8.8z"/>
	<path d="M119.9,15.8v-1.2h-0.1c-0.3,0.5-0.7,0.9-1.2,1.1s-0.9,0.3-1.5,0.3c-0.6,0-1.2-0.1-1.5-0.2c-0.4-0.2-0.7-0.4-0.9-0.7
		c-0.2-0.3-0.4-0.7-0.5-1.1c-0.1-0.5-0.2-0.9-0.2-1.5V7.3h2.4v4.9c0,0.7,0.1,1.2,0.3,1.6c0.2,0.4,0.6,0.5,1.2,0.5
		c0.6,0,1.1-0.2,1.4-0.5c0.3-0.4,0.5-1,0.5-1.9V7.5h2.4v8.6h-2.3V15.8z"/>
	<path d="M128.6,7.3v1.5h-1.7v4.2c0,0.4,0.1,0.7,0.2,0.8c0.2,0.2,0.4,0.2,0.8,0.2c0.2,0,0.2,0,0.4,0s0.2,0,0.4-0.1v1.9
		c-0.2,0-0.4,0.1-0.7,0.1c-0.2,0-0.5,0-0.7,0c-0.4,0-0.7,0-1-0.1c-0.3-0.1-0.6-0.2-0.8-0.3c-0.2-0.2-0.5-0.4-0.6-0.6
		c-0.2-0.2-0.2-0.6-0.2-1.1V8.7h-1.4V7.2h1.4V4.6h2.4v2.5L128.6,7.3L128.6,7.3z"/>
	<path d="M135.5,15.8v-1.2h-0.1c-0.3,0.5-0.7,0.9-1.2,1.1s-0.9,0.3-1.5,0.3c-0.6,0-1.2-0.1-1.5-0.2c-0.4-0.2-0.7-0.4-0.9-0.7
		c-0.2-0.3-0.4-0.7-0.5-1.1c-0.1-0.5-0.2-0.9-0.2-1.5V7.3h2.4v4.9c0,0.7,0.1,1.2,0.3,1.6s0.6,0.5,1.2,0.5c0.6,0,1.1-0.2,1.4-0.5
		c0.3-0.4,0.5-1,0.5-1.9V7.5h2.4v8.6h-2.3V15.8z"/>
	<path d="M140.9,7.3v1.6l0,0c0.1-0.2,0.2-0.5,0.5-0.8c0.2-0.2,0.4-0.4,0.6-0.6c0.2-0.2,0.5-0.3,0.8-0.4c0.3-0.1,0.5-0.2,0.9-0.2
		c0.2,0,0.3,0,0.5,0.1v2.2c-0.1,0-0.2-0.1-0.4-0.1s-0.3,0-0.5,0c-0.5,0-0.8,0.1-1.1,0.2c-0.3,0.2-0.5,0.3-0.7,0.6
		c-0.2,0.2-0.3,0.5-0.4,0.9c-0.1,0.3-0.2,0.7-0.2,1.1v3.9h-2.4V7.2L140.9,7.3L140.9,7.3z"/>
	<path d="M147.4,13.8c0.4,0.3,0.9,0.5,1.5,0.5c0.5,0,0.9-0.2,1.2-0.4c0.3-0.2,0.5-0.5,0.6-0.8h2.1c-0.3,1-0.9,1.8-1.5,2.2
		s-1.5,0.7-2.5,0.7c-0.7,0-1.3-0.1-1.9-0.3c-0.5-0.2-1-0.5-1.4-0.9c-0.4-0.4-0.7-0.9-0.9-1.4c-0.2-0.5-0.3-1.2-0.3-1.9
		c0-0.6,0.1-1.2,0.3-1.8c0.2-0.5,0.5-1,0.9-1.5c0.4-0.4,0.9-0.7,1.4-0.9c0.5-0.2,1.2-0.4,1.8-0.4c0.7,0,1.4,0.2,1.9,0.4
		c0.5,0.3,1,0.7,1.3,1.2c0.4,0.5,0.6,1,0.8,1.6c0.2,0.6,0.2,1.2,0.2,1.9h-6.2C146.8,12.9,147,13.4,147.4,13.8z M150,9.3
		c-0.3-0.3-0.7-0.5-1.3-0.5c-0.4,0-0.7,0.1-0.9,0.2c-0.2,0.2-0.5,0.3-0.6,0.5c-0.2,0.2-0.2,0.4-0.3,0.6c-0.1,0.2-0.1,0.4-0.1,0.5
		h3.9C150.5,10,150.3,9.6,150,9.3z"/>
	<path d="M155.9,13.8c0.1,0.2,0.2,0.3,0.4,0.5c0.2,0.1,0.4,0.2,0.5,0.2c0.2,0.1,0.5,0.1,0.7,0.1c0.2,0,0.3,0,0.5-0.1
		c0.2,0,0.4-0.1,0.5-0.2c0.2-0.1,0.3-0.2,0.4-0.3c0.1-0.2,0.2-0.3,0.2-0.5c0-0.4-0.2-0.6-0.7-0.8c-0.5-0.2-1.2-0.4-1.9-0.5
		c-0.3-0.1-0.7-0.2-1-0.3c-0.3-0.1-0.6-0.2-0.9-0.4c-0.2-0.2-0.5-0.4-0.6-0.6c-0.2-0.2-0.2-0.5-0.2-0.9c0-0.5,0.1-1,0.3-1.4
		s0.5-0.6,0.9-0.9c0.4-0.2,0.8-0.4,1.2-0.5c0.5-0.1,0.9-0.2,1.4-0.2c0.5,0,0.9,0.1,1.4,0.2c0.5,0.1,0.9,0.2,1.2,0.5
		c0.3,0.2,0.6,0.5,0.9,0.9c0.2,0.4,0.4,0.8,0.4,1.3h-2.2c0-0.5-0.2-0.8-0.5-0.9c-0.3-0.2-0.7-0.2-1.1-0.2c-0.2,0-0.3,0-0.5,0
		s-0.3,0.1-0.4,0.1c-0.2,0.1-0.2,0.2-0.3,0.2c-0.1,0.1-0.2,0.2-0.2,0.4c0,0.2,0.1,0.4,0.2,0.5c0.2,0.2,0.4,0.2,0.6,0.3
		c0.2,0.1,0.5,0.2,0.9,0.2c0.3,0.1,0.6,0.2,1,0.2c0.3,0.1,0.7,0.2,1,0.3c0.3,0.1,0.6,0.2,0.9,0.5c0.2,0.2,0.5,0.4,0.6,0.7
		c0.2,0.3,0.2,0.6,0.2,1c0,0.5-0.1,1-0.3,1.4c-0.2,0.4-0.5,0.7-0.9,0.9c-0.4,0.2-0.8,0.4-1.2,0.5c-0.5,0.1-0.9,0.2-1.5,0.2
		c-0.5,0-1-0.1-1.5-0.2c-0.5-0.1-0.9-0.2-1.2-0.5c-0.4-0.2-0.7-0.5-0.9-0.9c-0.2-0.4-0.4-0.9-0.4-1.5h2.2
		C155.8,13.3,155.9,13.5,155.9,13.8z"/>
</g>
<path d="M0,0v21.1h21.1V0H0z M7.3,15.8H5.1v-8h2.2V15.8z M7.3,6.5H5.1V4.6h2.2V6.5z M16.7,6.7h-5.3v2.5H16v1.9h-4.6v4.6H8.9V4.6h7.8
	V6.7z"/>
</svg>
